<?xml version="1.0" standalone="no"?><!DOCTYPE svg PUBLIC "-//W3C//DTD SVG 1.1//EN" "http://www.w3.org/Graphics/SVG/1.1/DTD/svg11.dtd"><svg t="1509082611108" class="icon" style="" viewBox="-120 -120 1300 1300" version="1.1" xmlns="http://www.w3.org/2000/svg" p-id="4599" xmlns:xlink="http://www.w3.org/1999/xlink" width="200" height="200"><defs><style type="text/css"></style></defs><path d="M504.738434 0.046663C222.272324 3.82266-3.710388 235.917577 0.067656 518.459412c3.777021 282.343314 235.869891 508.395611 518.337024 504.599147 282.468157-3.777021 508.443706-235.870914 504.672825-518.414796C1019.346533 222.251331 787.206591-3.730358 504.738434 0.046663L504.738434 0.046663 504.738434 0.046663zM561.445937 170.535513c51.97983 0 67.328391 30.13328 67.328391 64.6504 0 43.113911-34.537587 82.96757-93.413474 82.96757-49.257838 0-72.689489-24.796741-71.29984-65.723848C464.085573 217.916608 492.999073 170.535513 561.445937 170.535513L561.445937 170.535513zM428.106149 831.277789c-35.53838 0-61.556947-21.582538-36.709041-116.437849l40.753145-168.147527c7.062855-26.969219 8.233517-37.758953 0-37.758953-10.619865 0-56.780157 18.634395-84.060461 36.976124l-17.735932-29.085415c86.474438-72.173743 185.883459-114.537571 228.486741-114.537571 35.514844 0 41.41113 42.04558 23.678268 106.69291l-46.696504 176.826182c-8.233517 31.252776-4.676507 42.040463 3.558034 42.040463 10.618842 0 45.597474-12.909 79.945749-39.928361l20.069069 26.972289C555.378758 798.900401 463.693647 831.277789 428.106149 831.277789L428.106149 831.277789 428.106149 831.277789zM428.106149 831.277789" p-id="4600" fill="#ffffff"></path></svg>