<?xml version="1.0" standalone="no"?><!DOCTYPE svg PUBLIC "-//W3C//DTD SVG 1.1//EN" "http://www.w3.org/Graphics/SVG/1.1/DTD/svg11.dtd"><svg t="1506693443876" class="icon" style="" viewBox="0 0 1024 1024" version="1.1" xmlns="http://www.w3.org/2000/svg" p-id="10257" xmlns:xlink="http://www.w3.org/1999/xlink" width="200" height="200"><defs><style type="text/css"></style></defs><path d="M714.741517 62.597687l-408.309406 0c-28.187993 0-51.037397 22.849404-51.037397 51.037397l0 791.098579c0 28.187993 22.849404 51.037397 51.037397 51.037397l408.309406 0c28.187993 0 51.037397-22.849404 51.037397-51.037397L765.778914 113.635083C765.779937 85.447091 742.92951 62.597687 714.741517 62.597687zM585.646324 167.726026c0-7.998161 6.483668-14.485923 14.484899-14.485923l105.603153 0c8.002254 0 14.484899 6.487761 14.484899 14.485923l0 65.402569c0 7.998161-6.483668 14.481829-14.484899 14.481829L600.132246 247.610424c-8.002254 0-14.484899-6.483668-14.484899-14.481829L585.647347 167.726026zM714.741517 930.250826l-408.309406 0c-14.068414 0-25.517163-11.447726-25.517163-25.517163L280.914948 304.406988l459.343733 0 0 600.326675C740.258681 918.803099 728.814024 930.250826 714.741517 930.250826z" p-id="10258" fill="#ffffff"></path><path d="M692.448792 194.052624c9.104355 0 16.483416-7.347339 16.483416-16.404622 0-9.061376-7.379061-16.404622-16.483416-16.404622s-16.483416 7.344269-16.483416 16.404622C675.966399 186.705286 683.34546 194.052624 692.448792 194.052624z" p-id="10259" fill="#ffffff"></path><path d="M675.965375 223.202525a16.108 16.031 0 1 0 32.966832 0 16.108 16.031 0 1 0-32.966832 0Z" p-id="10260" fill="#ffffff"></path><path d="M306.412668 326.762135l190.066847 0 0 213.81983-190.066847 0 0-213.81983Z" p-id="10261" fill="#ffffff"></path><path d="M306.412668 558.953382l190.066847 0 0 165.476799-190.066847 0 0-165.476799Z" p-id="10262" fill="#ffffff"></path><path d="M306.412668 743.44321l190.066847 0 0 164.864862-190.066847 0 0-164.864862Z" p-id="10263" fill="#ffffff"></path><path d="M524.695137 694.485171l190.066847 0 0 213.823923-190.066847 0 0-213.823923Z" p-id="10264" fill="#ffffff"></path><path d="M524.695137 510.636956l190.066847 0 0 165.476799-190.066847 0 0-165.476799Z" p-id="10265" fill="#ffffff"></path><path d="M524.695137 326.762135l190.066847 0 0 164.864862-190.066847 0 0-164.864862Z" p-id="10266" fill="#ffffff"></path></svg>