<?xml version="1.0" standalone="no"?><!DOCTYPE svg PUBLIC "-//W3C//DTD SVG 1.1//EN" "http://www.w3.org/Graphics/SVG/1.1/DTD/svg11.dtd"><svg t="1509325537800" class="icon" style="" viewBox="-120 -120 1300 1300" version="1.1" xmlns="http://www.w3.org/2000/svg" p-id="4090" xmlns:xlink="http://www.w3.org/1999/xlink" width="200" height="200"><defs><style type="text/css"></style></defs><path d="M500.224 617.472c3.072 3.072 7.168 4.608 11.776 4.608 4.096 0 8.704-1.536 11.776-4.608l245.248-227.328c1.536-1.536 2.048-4.096 1.536-6.144-1.024-2.048-3.072-3.584-5.12-3.584h-158.72l0.512-259.584c0-4.608-1.536-8.704-5.12-12.288-3.072-3.072-7.68-5.12-12.288-5.12H434.176c-4.608 0-8.704 1.536-12.288 5.12-3.072 3.072-5.12 7.68-5.12 12.288l0.512 259.584h-158.72c-2.56 0-4.608 1.536-5.12 3.584-1.024 2.048-0.512 4.608 1.536 6.144l245.248 227.328z" p-id="4091" fill="#ffffff"></path><path d="M1013.248 678.912l-153.6-118.784c-8.704-6.656-25.088-12.288-35.84-12.288h-89.088l147.456 147.456h-147.968l-74.24 107.008H363.52l-73.728-107.008-146.432 0.512 147.456-147.456H200.704c-11.264 0-27.136 5.632-35.84 12.288l-153.6 118.784C2.56 686.08-1.536 700.416 1.536 710.656l61.44 187.904c3.584 10.752 15.36 18.944 26.112 18.944h847.36c11.264 0 23.04-8.704 26.112-18.944l60.416-187.392c3.072-11.776-1.024-25.6-9.728-32.256z" p-id="4092" fill="#ffffff"></path></svg>