<?xml version="1.0" standalone="no"?><!DOCTYPE svg PUBLIC "-//W3C//DTD SVG 1.1//EN" "http://www.w3.org/Graphics/SVG/1.1/DTD/svg11.dtd"><svg t="1509325519492" class="icon" style="" viewBox="0 0 1024 1024" version="1.1" xmlns="http://www.w3.org/2000/svg" p-id="2589" xmlns:xlink="http://www.w3.org/1999/xlink" width="200" height="200"><defs><style type="text/css"></style></defs><path d="M320.58 380.5a4.59 4.59 0 0 0-1.1 4.88 4.28 4.28 0 0 0 4 2.81h119.11l-0.27 228.71a13.46 13.46 0 0 0 3.78 9.46 12.42 12.42 0 0 0 9.06 3.91h116.62a12.47 12.47 0 0 0 9.06-3.91 13.52 13.52 0 0 0 3.78-9.46l-0.27-228.71h119.14a4.18 4.18 0 0 0 4-2.81 4.46 4.46 0 0 0-1.1-4.88L522.2 183.33a12.52 12.52 0 0 0-17.45 0L320.58 380.5z m568.31 268.19L773.4 555.93c-6.52-5.28-18.69-9.63-27-9.63h-66.82l111.28 115.29H679.92L623.44 745H401.13l-54.07-83.46h-111L346.69 546.3h-68.11c-8.29 0-20.43 4.35-27 9.63l-115.47 92.76c-6.52 5.32-9.76 16.35-7.22 24.54L175 819.78c2.57 8.19 11.5 14.91 19.79 14.91h636.42c8.29 0 17.15-6.72 19.69-14.95l45.31-146.48c2.51-8.19-0.8-19.23-7.32-24.58z" p-id="2590" fill="#ffffff"></path></svg>