<?xml version="1.0" standalone="no"?><!DOCTYPE svg PUBLIC "-//W3C//DTD SVG 1.1//EN" "http://www.w3.org/Graphics/SVG/1.1/DTD/svg11.dtd"><svg t="1509115249787" class="icon" style="" viewBox="-120 -120 1200 1200" version="1.1" xmlns="http://www.w3.org/2000/svg" p-id="7009" xmlns:xlink="http://www.w3.org/1999/xlink" width="200" height="200"><defs><style type="text/css"></style></defs><path d="M892.736 544h-238.848c-56.832 0-102.528 45.76-102.528 102.272v300.8c0 30.592 13.504 58.048 34.88 76.8H156.736a51.776 51.776 0 0 1-51.712-50.88V440.96l-28.16 19.776a48.384 48.384 0 1 1-55.68-79.36l441.536-309.12A48.256 48.256 0 0 1 498.88 56.96c13.44-0.256 26.624 5.056 36.16 15.232l441.472 309.12a48.448 48.448 0 1 1-55.552 79.36l-28.224-19.712V544z m-498.88 11.456v46.08c0 6.016 7.04 11.328 14.592 11.392H523.52c7.488-0.128 14.528-5.44 14.592-11.52V555.52c0-6.016-7.04-11.328-14.528-11.328H408.448a9.472 9.472 0 0 0-2.688 0c-6.592 0.96-11.968 6.016-11.904 11.328z m-183.808 0v46.08c0 6.016 7.04 11.328 14.592 11.392h115.008c7.488-0.128 14.528-5.44 14.656-11.52V555.52c0-6.016-7.04-11.328-14.592-11.328H224.64a9.472 9.472 0 0 0-2.688 0c-6.592 0.96-11.968 6.016-11.904 11.328z m183.808-113.664v46.08c0 6.016 7.04 11.328 14.592 11.392H523.52c7.488-0.128 14.528-5.44 14.592-11.52v-45.952c0-6.016-7.04-11.392-14.528-11.392H408.448a9.472 9.472 0 0 0-2.688 0c-6.592 1.024-11.968 6.08-11.904 11.392z m-183.808 0v46.08c0 6.016 7.04 11.328 14.592 11.392h115.008c7.488-0.128 14.528-5.44 14.656-11.52v-45.952c0-6.016-7.04-11.392-14.592-11.392H224.64a9.472 9.472 0 0 0-2.688 0c-6.592 1.024-11.968 6.08-11.904 11.392z m0-113.728v46.08c0 6.08 7.04 11.392 14.592 11.456h115.008c7.488-0.192 14.528-5.44 14.656-11.52v-46.016c0-5.952-7.04-11.328-14.592-11.328H224.64a9.472 9.472 0 0 0-2.688 0c-6.592 1.024-11.968 6.08-11.904 11.328zM657.92 595.84h310.784a55.04 55.04 0 0 1 38.144 15.232c9.792 9.408 15.872 22.4 15.872 36.736v62.72h-40.96c-2.944-21.696-14.912-37.952-29.312-37.952-14.336 0-26.368 16.256-29.248 37.952h-140.928c-2.88-21.696-14.848-37.952-29.248-37.952s-26.368 16.256-29.248 37.952h-21.312c-2.944-21.44-14.912-37.568-29.184-37.568s-26.176 16.128-29.12 37.632h-40.32v-62.784c0-14.272 6.144-27.328 15.936-36.736a54.848 54.848 0 0 1 38.144-15.232z m364.8 133.888V864h-41.28c-2.752-21.888-14.848-38.4-29.376-38.4-14.464 0-26.496 16.512-29.312 38.4h-22.336c-2.56-22.272-14.72-39.168-29.312-39.168-14.72 0-26.88 16.896-29.44 39.168h-19.84c-2.944-21.696-14.912-38.016-29.312-38.016-14.336 0-26.368 16.32-29.248 38.016h-159.36V729.6h40c2.56 22.272 14.72 39.168 29.44 39.168 14.592 0 26.752-16.896 29.312-39.168h21.12c2.624 22.08 14.72 38.784 29.312 38.784s26.688-16.64 29.312-38.784h140.8c2.688 22.144 14.72 38.784 29.312 38.784 14.528 0 26.688-16.64 29.312-38.784h40.896z m0 153.6v63.488a50.944 50.944 0 0 1-15.872 36.736 55.04 55.04 0 0 1-38.144 15.232H657.92a55.04 55.04 0 0 1-38.208-15.232 50.944 50.944 0 0 1-15.808-36.736v-63.488h159.296c2.688 22.08 14.72 38.72 29.312 38.72s26.688-16.64 29.376-38.72h20.032c2.944 21.44 14.848 37.504 29.12 37.504s26.24-16.128 29.184-37.504h22.528c2.752 21.888 14.784 38.336 29.312 38.336 14.464 0 26.56-16.448 29.312-38.4h41.344z" p-id="7010" fill="#ffffff"></path></svg>