<?xml version="1.0" standalone="no"?><!DOCTYPE svg PUBLIC "-//W3C//DTD SVG 1.1//EN" "http://www.w3.org/Graphics/SVG/1.1/DTD/svg11.dtd"><svg t="1509115008796" class="icon" style="" viewBox="-120 -120 1200 1200" version="1.1" xmlns="http://www.w3.org/2000/svg" p-id="2085" xmlns:xlink="http://www.w3.org/1999/xlink" width="200" height="200"><defs><style type="text/css"></style></defs><path d="M688 400H336c-12.8 0-24-11.2-24-24S323.2 352 336 352h352c12.8 0 24 11.2 24 24S700.8 400 688 400zM688 544H336c-12.8 0-24-11.2-24-24S323.2 496 336 496h352c12.8 0 24 11.2 24 24S700.8 544 688 544zM688 672H336c-12.8 0-24-11.2-24-24S323.2 624 336 624h352c12.8 0 24 11.2 24 24S700.8 672 688 672z" p-id="2086" fill="#ffffff"></path><path d="M934.4 948.8c-4.8 0-11.2-1.6-16-4.8l-81.6-67.2-83.2 67.2c-8 6.4-19.2 6.4-28.8 1.6l-104-70.4-96 70.4c-8 6.4-19.2 6.4-28.8 0l-96-70.4-97.6 68.8c-9.6 6.4-20.8 6.4-28.8-1.6L192 875.2 104 944c-8 6.4-17.6 6.4-25.6 3.2-8-4.8-12.8-12.8-12.8-20.8V201.6c0-68.8 56-124.8 124.8-124.8H832c68.8 0 124.8 56 124.8 124.8v723.2c0 9.6-4.8 17.6-14.4 22.4-1.6 0-4.8 1.6-8 1.6z m-531.2-128c4.8 0 9.6 1.6 14.4 4.8L512 896l94.4-70.4c8-6.4 19.2-6.4 27.2 0L736 896l84.8-68.8c9.6-8 20.8-6.4 30.4 0l57.6 48v-672c0-43.2-35.2-76.8-76.8-76.8H190.4c-43.2 0-76.8 35.2-76.8 76.8v673.6l64-49.6c9.6-6.4 20.8-6.4 30.4 0l81.6 68.8 99.2-68.8c4.8-4.8 9.6-6.4 14.4-6.4z" p-id="2087" fill="#ffffff"></path></svg>