<?xml version="1.0" standalone="no"?><!DOCTYPE svg PUBLIC "-//W3C//DTD SVG 1.1//EN" "http://www.w3.org/Graphics/SVG/1.1/DTD/svg11.dtd"><svg t="1509115054299" class="icon" style="" viewBox="-120 -120 1200 1200" version="1.1" xmlns="http://www.w3.org/2000/svg" p-id="2913" xmlns:xlink="http://www.w3.org/1999/xlink" width="200" height="200"><defs><style type="text/css"></style></defs><path d="M843.931 194.187h-50.962c-20.194 0-36.394 14.063-36.394 31.331s16.2 31.331 36.281 31.331l40.331 0.281-0.394 642.206-641.925-0.338 0.338-642.15h39.938c20.025 0 36.281-14.063 36.281-31.331s-16.256-31.331-36.281-31.331h-51.131c-34.087 0-61.762 23.963-61.762 53.381v661.050c0 29.475 27.675 53.381 61.762 53.381h663.919c34.031 0 61.819-23.906 61.819-53.381v-661.050c0-29.419-27.787-53.381-61.819-53.381v0 0zM333.294 300.95h357.413c17.831 0 34.256-6.694 44.831-18.338 10.631-11.644 14.175-26.944 9.731-42.019l-13.162-45.281c-7.256-25.313-36.675-45.169-66.938-45.169h-48.206l-12.431-43.031c-7.481-25.706-36.281-45.113-66.994-45.113h-51.075c-30.712 0-59.512 19.406-66.938 45.113l-12.487 43.031h-48.206c-30.263 0-59.681 19.856-66.938 45.113l-13.162 45.338c-4.388 15.075-0.844 30.431 9.675 42.075 10.575 11.644 26.944 18.281 44.887 18.281v0 0zM361.644 212.863h48.206c30.263 0 59.625-19.8 66.938-45.113l12.488-43.031 45.281-0.281 12.656 43.2c7.256 25.369 36.675 45.225 66.881 45.225h48.206l7.537 25.369-315.45-0.788 7.256-24.581zM690.706 370.475h-357.413c-20.081 0-36.337 14.063-36.337 31.331s16.313 31.331 36.337 31.331h357.413c20.081 0 36.337-14.063 36.337-31.331 0-17.325-16.256-31.331-36.337-31.331v0 0zM690.706 458.619h-357.413c-20.081 0-36.337 14.063-36.337 31.387 0 17.269 16.313 31.331 36.337 31.331h357.413c20.081 0 36.337-14.063 36.337-31.331 0-17.325-16.256-31.387-36.337-31.387v0 0zM690.706 546.762h-357.413c-20.081 0-36.337 14.063-36.337 31.388 0 17.381 16.313 31.331 36.337 31.331h357.413c20.081 0 36.337-13.95 36.337-31.331 0-17.325-16.256-31.388-36.337-31.388v0 0zM690.706 634.962h-357.413c-20.081 0-36.337 14.063-36.337 31.388s16.313 31.275 36.337 31.275h357.413c20.081 0 36.337-14.006 36.337-31.331s-16.256-31.331-36.337-31.331v0 0zM690.706 723.050h-357.413c-20.081 0-36.337 14.006-36.337 31.444 0 17.325 16.313 31.331 36.337 31.331h357.413c20.081 0 36.337-14.006 36.337-31.331 0-17.438-16.256-31.444-36.337-31.444v0 0z" p-id="2914" fill="#ffffff"></path></svg>