<?xml version="1.0" standalone="no"?><!DOCTYPE svg PUBLIC "-//W3C//DTD SVG 1.1//EN" "http://www.w3.org/Graphics/SVG/1.1/DTD/svg11.dtd"><svg t="1509115078674" class="icon" style="" viewBox="-120 -120 1200 1200" version="1.1" xmlns="http://www.w3.org/2000/svg" p-id="3612" xmlns:xlink="http://www.w3.org/1999/xlink" width="200" height="200"><defs><style type="text/css"></style></defs><path d="M187.733333 554.666667v-146.773334c0-46.08 37.546667-83.626667 83.626667-83.626666h392.533333v124.586666c0 10.24 10.24 15.36 18.773334 10.24l254.293333-170.666666c6.826667-5.12 6.826667-15.36 0-20.48L682.666667 95.573333c-8.533333-5.12-18.773333 0-18.773334 10.24v124.586667H273.066667c-98.986667 0-177.493333 80.213333-177.493334 177.493333v146.773334c0 25.6 20.48 46.08 46.08 46.08S187.733333 580.266667 187.733333 554.666667zM911.36 455.68c-25.6 0-46.08 20.48-46.08 46.08V648.533333c0 46.08-37.546667 83.626667-83.626667 83.626667h-392.533333v-124.586667c0-10.24-10.24-15.36-18.773333-10.24L116.053333 768c-6.826667 5.12-6.826667 15.36 0 20.48l254.293334 170.666667c8.533333 5.12 18.773333 0 18.773333-10.24v-124.586667h392.533333c98.986667 0 177.493333-80.213333 177.493334-177.493333v-146.773334c0-23.893333-20.48-44.373333-47.786667-44.373333z" p-id="3613" fill="#ffffff"></path></svg>