<?xml version="1.0" standalone="no"?><!DOCTYPE svg PUBLIC "-//W3C//DTD SVG 1.1//EN" "http://www.w3.org/Graphics/SVG/1.1/DTD/svg11.dtd"><svg t="1506910110624" class="icon" style="" viewBox="50 40 980 980" version="1.1" xmlns="http://www.w3.org/2000/svg" p-id="13522" xmlns:xlink="http://www.w3.org/1999/xlink" width="200" height="200"><defs><style type="text/css"></style></defs><path d="M746.228 604.928c-3.943-3.349-5.979-5.258-8.199-6.922-22.852-17.096-31.072-36.401-26.625-67.671 16.313-114.708-76.623-209.195-170.387-219.382-118.281-12.852-215.612 61.595-230.628 175.279-17.932 135.762 101.925 249.322 236.727 223.583 15.138-2.89 25.358 0.366 35.272 11.331 7.016 7.766 15.877 13.873 26.842 23.221-30.873 16.164-31.312 41.48-29.691 67.421 1.594 25.564-3.127 50.183-28.549 60.487-27.743 11.251-59.176 13.597-85.092-3.283-11.911-7.761-18.069-26.969-22.8-42.245-3.581-11.571-0.559-25.128-0.852-37.794-0.462-20.212-9.697-35.167-28.418-43.049-18.696-7.867-35.813-4.502-50.502 9.809-9.074 8.843-17.905 17.95-27.232 26.523-18.069 16.606-43.31 21.452-61.811 7.98-16.17-11.778-31.046-26.577-42.912-42.68-13-17.648-7.835-44.9 8.167-62.002 8.623-9.231 18.144-17.632 26.976-26.677 12.878-13.184 17.503-29.14 11.911-46.626-5.833-18.223-19.226-29.605-38.253-32.112-14.603-1.923-29.495-1.538-44.253-2.274-31.862-1.583-50.38-20.102-51.739-52.042-0.423-9.838-0.396-19.721-0.037-29.562 1.184-32.923 21.913-53.279 54.93-54.008 11.963-0.261 23.973 0.472 35.898-0.233 19.853-1.167 35.373-10.388 42.76-29.14 7.348-18.64 3.256-35.902-11.216-50.303-7.97-7.939-15.938-15.892-23.739-24.003-3.381-3.518-6.901-7.1-9.397-11.231-17.415-28.846-7.108-57.533 31.908-89.554 22.702-18.635 50.303-17.708 72.467 2.717 9.31 8.586 17.962 17.888 27.308 26.427 14.972 13.691 32.66 16.705 50.888 8.818 17.454-7.548 27.332-21.428 27.167-41.43-0.109-13.363-0.174-26.777 0.794-40.090 1.878-25.86 18.625-46.041 43.826-49.638 16.501-2.354 33.867-2.326 50.38-0.028 23.739 3.303 40.816 24.321 42.107 48.742 0.749 14.042-0.641 28.227 0.495 42.221 1.597 19.527 10.535 34.51 29.852 42.184 19.483 7.737 35.742 2.708 50.119-11.211 6.067-5.873 11.762-12.141 17.737-18.11 3.975-3.976 7.867-8.134 12.308-11.553 28.213-21.715 59.636-12.55 93.558 27.097 20.674 24.161 19.3 52.858-3.416 75.408-8.98 8.915-18.425 17.542-26.275 27.395-12.248 15.367-16.343 33.195-7.165 51.298 8.596 16.947 23.526 25.567 42.924 25.558 11.97-0.007 23.96-0.427 35.897 0.148 28.482 1.377 48.868 18.278 52.397 45.5 1.973 15.2 1.99 31.099-0.064 46.283-3.652 27.026-24.898 44.506-52.46 45.559-8.438 0.325-16.94 0.619-25.342-0.045-21.919-1.717-40.058 5.094-54.56 23.909v0M368.567 474.725c17.408 18.251 34.522 36.784 52.277 54.691 33.833 34.132 77.826 35.194 110.413 3.106 33.622-33.099 33.106-76.389-2.145-111.382-17.964-17.824-37.090-34.474-54.102-54.457 45.519-13.56 86.752-6.121 123.683 19.681 58.537 40.905 80.392 109.943 56.512 177.205-4.547 12.803-0.759 19.221 7.339 27.151 43.748 42.832 87.442 85.728 130.72 129.035 24.833 24.854 23.526 54.59-2.385 77.078-20.866 18.106-46.888 17.43-68.059-3.276-43.79-42.818-87.259-85.97-130.231-129.599-9.984-10.132-17.786-12.746-32.509-7.793-57.639 19.4-110.203 7.556-154.131-34.349-41.267-39.364-53.724-88.448-43.669-143.356 2.096-1.241 4.193-2.488 6.285-3.735v0M758.094 731.865c-14.574 1.726-24.417 9.288-25.736 24.786-1.203 14.108 11.851 26.906 26.19 26.933 14.549 0.024 26.608-12.276 25.776-27.092-0.895-15.942-10.549-23.315-26.229-24.629v0M758.094 731.865z" p-id="13523" fill="#ffffff"></path></svg>