<?xml version="1.0" standalone="no"?><!DOCTYPE svg PUBLIC "-//W3C//DTD SVG 1.1//EN" "http://www.w3.org/Graphics/SVG/1.1/DTD/svg11.dtd"><svg t="1509082641822" class="icon" style="" viewBox="-120 -120 1200 1200" version="1.1" xmlns="http://www.w3.org/2000/svg" p-id="5298" xmlns:xlink="http://www.w3.org/1999/xlink" width="200" height="200"><defs><style type="text/css"></style></defs><path d="M1023.366758 811.980275L1023.639716 708.119952s-68.512328-13.647874-69.740637-18.219912a314.992936 314.992936 0 0 0-4.094363-14.876183c7.984006-14.876183 46.67573-47.631081 46.67573-47.631081l-77.383446-102.836732s-50.087698 41.21658-62.575504 47.085166a226.895908 226.895908 0 0 0-18.288151-6.141543c-6.687458-1.705984-25.316807-67.761695-25.316807-67.761696l-104.13328-0.887111s-11.259496 63.940291-27.978142 68.239371a111.844329 111.844329 0 0 0-16.991603 6.48274c-12.487805-6.141543-62.575503-48.040517-62.575503-48.040517L523.922803 628.279888s38.759963 39.03292 41.353058 52.06664c-1.637745 4.094362-3.20725 8.325203-4.640277 12.556044-16.650407 5.800347-63.940291 15.21738-63.94029 15.21738l0.204718 103.860323s55.000933 11.464214 65.509796 20.60829c2.11542 6.005065 4.640277 11.873651 7.301612 17.537518-12.624284 15.831534-46.60749 42.30841-46.60749 42.30841l79.703585 103.723844s62.643743-40.534186 72.947888-42.786086c5.117953 2.18366 10.235906 4.230841 15.558576 6.141543 9.417033 3.27549 16.172731 63.735572 16.172731 63.735573L811.415272 1023.590564s3.616687-59.368253 11.191257-61.756631c7.506331-2.320139 14.944422-5.117953 22.109556-8.188724 8.734639 3.411969 49.814741 44.355591 49.814741 44.355591l102.700253-104.747435s-38.214048-26.340397-48.722911-40.534186c2.866054-5.868586 5.45915-11.94189 7.847528-18.083433 3.480208-9.417033 66.942823-22.655471 66.942823-22.655471z m-264.427562 78.679994a131.156071 131.156071 0 1 1 0-262.312142 131.156071 131.156071 0 0 1 0 262.312142zM425.385151 491.869386c119.28242 0 240.612022-117.235239 240.612022-241.430895C666.065412 126.242836 550.467918 0 431.321976 0 311.903077 0 193.30305 129.381847 193.30305 253.441024c0 124.195655 112.79968 238.428362 232.013862 238.428362z m52.476076 51.725443H239.364626c-59.70945 0-149.171265 31.117153-178.923631 124.127415l-59.64121 186.225244c-15.012662 46.743969 203.489804 70.55951 420.763961 69.808876 72.060776-0.204718 22.928429-59.436492 22.928429-134.568039 0-171.144342 146.032254-245.661735 33.369052-245.661736z" p-id="5299" fill="#ffffff"></path></svg>