<?xml version="1.0" standalone="no"?><!DOCTYPE svg PUBLIC "-//W3C//DTD SVG 1.1//EN" "http://www.w3.org/Graphics/SVG/1.1/DTD/svg11.dtd"><svg t="1509282312221" class="icon" style="" viewBox="0 0 1024 1024" version="1.1" xmlns="http://www.w3.org/2000/svg" p-id="2521" xmlns:xlink="http://www.w3.org/1999/xlink" width="200" height="200"><defs><style type="text/css"></style></defs><path d="M258.6 258.6C258.6 398.6 372 512 512 512s253.4-113.4 253.4-253.4S652 5.2 512 5.2 258.6 118.6 258.6 258.6zM58 891.4v0z m0-1.6v0z m0-0.4s0 0.2 0 0z m908 3.2v-0.4 0.4z m0-0.6v-0.8 0.8z m-908 0.6v0z m684-326.8l-20.8-0.2c-7.2 0-18.4 2.8-24.8 6.2 0 0-16.6 9.6-31.8 16-45.4 19.6-97 30.8-152 30.8-54.6 0-106.2-11-151.4-30.4-15.4-6.6-32.4-16.4-32.4-16.4-6.4-3.6-17.4-6.4-24.8-6.2l-20.6 0.2c-83 11-170.2 84.6-195.2 164.2 0 0-26.6 53.8-30.4 159.4-0.2 13.8 10.8 31.2 25 38.6 0 0 141.4 90.8 428.8 90.8 287.6 0 428.8-90.8 428.8-90.8 14-7.6 25.4-26.8 25-39-3.6-105.2-29.4-156.8-29.4-156.8-22.8-80-111.2-154.2-194-166.4z m224 324v-0.6 0.6z m0 1.4v-1 1z" p-id="2522" fill="#ffffff"></path></svg>