<?xml version="1.0" standalone="no"?><!DOCTYPE svg PUBLIC "-//W3C//DTD SVG 1.1//EN" "http://www.w3.org/Graphics/SVG/1.1/DTD/svg11.dtd"><svg t="1506910521989" class="icon" style="" viewBox="-50 -50 1120 1120" version="1.1" xmlns="http://www.w3.org/2000/svg" p-id="17845" xmlns:xlink="http://www.w3.org/1999/xlink" width="200" height="200"><defs><style type="text/css"></style></defs><path d="M892.773 448.098c0-210.428-170.724-381.151-381.15-381.151S130.471 237.67 130.471 448.097c0 191.37 141.343 350.183 325.566 377.181l-3.97 67.495H257.521v63.525h508.202v-63.525H572.765l-3.97-67.495c183.428-27.79 323.978-185.81 323.978-377.18zM511.621 765.724c-175.488 0-317.626-142.138-317.626-317.626s142.138-317.626 317.626-317.626 317.626 142.137 317.626 317.626S687.11 765.724 511.621 765.724z m0-555.845c-131.815 0-238.22 106.404-238.22 238.22s106.405 238.22 238.22 238.22 238.22-106.405 238.22-238.22-106.404-238.22-238.22-238.22z m-95.287 301.744c-52.408 0-95.288-42.88-95.288-95.288s42.88-95.288 95.288-95.288 95.288 42.88 95.288 95.288-42.88 95.288-95.288 95.288z" p-id="17846" fill="#ffffff"></path></svg>