<?xml version="1.0" standalone="no"?><!DOCTYPE svg PUBLIC "-//W3C//DTD SVG 1.1//EN" "http://www.w3.org/Graphics/SVG/1.1/DTD/svg11.dtd"><svg t="1506911518681" class="icon" style="" viewBox="-120 -100 1200 1200" version="1.1" xmlns="http://www.w3.org/2000/svg" p-id="21251" xmlns:xlink="http://www.w3.org/1999/xlink" width="200" height="200"><defs><style type="text/css"></style></defs><path d="M860.668051 717.897394l-54.420447 0L806.247604 511.393179c-8.494465 6.815219-17.302061 8.740058-24.51637 8.740058l-10.05296 0c-27.759227 0-42.530652-34.425044-49.053206-55.984059-7.166213-2.303462-14.165628-5.059226-20.937868-8.243755-10.288321 6.560416-29.855982 17.195637-48.518017 17.195637-10.606569 0-19.956517-3.444449-27.095102-9.967002l-9.240455-7.302313-0.509606-0.479931c-19.615757-18.735713-5.64251-51.55519 7.661494-73.608461-3.399423-6.540973-6.324032-13.246699-8.749268-20.057825-6.984065-1.952468-16.474206-4.992711-25.628704-9.17701-22.13002-10.125615-33.347502-23.049972-33.347502-38.422078l0-9.586332c0-11.688203 5.694699-28.0478 32.843012-39.615253 9.153474-3.90596 18.793018-6.426363 26.052353-7.956206 2.351558-6.643304 5.170766-13.160741 8.436136-19.505239-13.626345-21.958104-27.975145-54.632271-8.229428-73.468269l0.456395-0.433882 9.720386-7.816013c0.48607-0.443092 0.981351-0.865717 1.490957-1.279133-29.111015-14.738679-60.712757-25.26236-94.016257-30.765701 0.153496-1.62501 0.889253-3.092431 0.889253-4.756327 0-30.077016-24.347524-54.463426-54.420447-54.463426-30.077016 0-54.464449 24.38641-54.464449 54.463426 0 1.664919 0.813528 3.131317 0.968048 4.756327C271.079952 149.21237 152.753009 283.446607 152.753009 445.63143l0 272.265964-54.463426 0c-30.072923 0-54.459333 24.348548-54.459333 54.459333 0 30.077016 24.387433 54.425563 54.459333 54.425563l762.340605 0c30.077016 0 54.425563-24.347524 54.425563-54.425563C915.094638 742.245941 890.745067 717.897394 860.668051 717.897394L860.668051 717.897394zM860.668051 717.897394" p-id="21252" fill="#ffffff"></path><path d="M479.478306 990.164381c60.192917 0 108.922758-48.76975 108.922758-108.87978L370.59341 881.284601C370.59341 941.395654 419.328367 990.164381 479.478306 990.164381L479.478306 990.164381zM479.478306 990.164381" p-id="21253" fill="#ffffff"></path><path d="M903.376759 276.038894c-2.910283-10.07138-7.161097-19.614733-12.452613-28.488845 6.0416-7.758708 26.883277-36.768415 11.857049-51.088562l-7.720845-7.752568c-12.828167-12.232602-45.641503 6.878664-53.622268 11.81714-9.393951-5.088902-19.537985-9.134031-30.206976-11.894911-1.707898-9.691733-9.206686-43.660382-30.352285-43.660382l-8.460696 0c-18.122753 0-28.566616 35.121915-30.875195 43.925419-10.55745 2.793626-20.547988 6.859221-29.831422 11.92868-7.30743-5.185093-38.740326-25.89681-54.104245-11.278881l-8.133238 6.52767c-13.348006 12.731976 8.874111 46.330188 12.904914 52.222385-5.14723 8.725732-9.249665 18.085914-12.082176 27.965935-8.874111 1.342578-46.686299 8.316409-46.686299 29.04757l0 8.071839c0 17.974373 39.676651 27.950586 46.90631 29.623691 2.871397 9.80839 7.013741 19.095917 12.159948 27.76332-4.251837 6.393617-25.617447 39.821961-12.379958 52.463885l7.719822 6.098905c17.450441 16.628726 53.877071-10.66899 53.877071-10.66899l-1.713015-1.713015c9.658987 5.439896 20.101827 9.730619 31.175023 12.69923 1.788739 7.098675 12.270465 44.650943 31.06246 44.650943l8.460696 0c24.647353 0 30.765701-43.852764 30.765701-43.852764l-2.275833-0.058328c11.183713-2.723018 21.775956-6.825452 31.621185-12.05864 7.680936 4.882194 39.936571 24.122397 52.838416 11.857049l8.543583-8.18645c17.186428-16.373922-10.779507-49.89027-11.56336-50.823526 5.334495-8.854669 9.586332-18.364253 12.530384-28.432563 9.586332-2.308579 45.790906-12.208043 45.790906-29.364795l0-8.071839C949.128779 282.561447 906.060891 276.390911 903.376759 276.038894L903.376759 276.038894zM776.406972 402.297482c-53.657061 0-97.172133-41.467437-97.172133-92.626607 0-51.15917 43.515073-92.622514 97.172133-92.622514 53.699016 0 97.17725 41.462321 97.17725 92.622514C873.583199 360.830045 830.104965 402.297482 776.406972 402.297482L776.406972 402.297482zM776.406972 402.297482" p-id="21254" fill="#ffffff"></path><path d="M776.406972 247.920486c-35.792181 0-64.805982 27.652803-64.805982 61.750389 0 34.117029 29.013801 61.769832 64.805982 61.769832 35.796274 0 64.809051-27.647687 64.809051-61.769832C841.216024 275.573289 812.202223 247.920486 776.406972 247.920486L776.406972 247.920486zM776.406972 340.54607c-17.894555 0-32.400944-13.814634-32.400944-30.875195 0-17.042141 14.503319-30.875195 32.400944-30.875195 17.902742 0 32.405037 13.83817 32.405037 30.875195C808.810986 326.727343 794.309714 340.54607 776.406972 340.54607L776.406972 340.54607zM776.406972 340.54607" p-id="21255" fill="#ffffff"></path></svg>